<?xml version="1.0" encoding="UTF-8"?>
<svg version="1.1" xmlns="http://www.w3.org/2000/svg" width="132" height="100">
<path d="M0 0 C43.56 0 87.12 0 132 0 C132 33 132 66 132 100 C88.44 100 44.88 100 0 100 C0 67 0 34 0 0 Z " fill="#181817" transform="translate(0,0)"/>
<path d="M0 0 C6.27 0 12.54 0 19 0 C19 9.57 19 19.14 19 29 C28.57 29 38.14 29 48 29 C48 19.43 48 9.86 48 0 C53.17519783 -0.11580502 58.345771 -0.21501649 63.52124023 -0.2746582 C65.27562826 -0.29955795 67.02991527 -0.33349107 68.78393555 -0.37719727 C81.81273261 -0.69333993 93.02781415 -0.21014497 103.5625 8.5 C104.72853364 9.64647752 105.8776073 10.81076505 107 12 C107.7425 12.721875 108.485 13.44375 109.25 14.1875 C115.70374463 24.55958959 116.72183345 36.99443941 114.45703125 48.83984375 C111.68185476 57.80933683 106.58836657 66.09779677 98.31884766 70.79223633 C88.13393152 76.09701419 77.5409756 75.35197935 66.375 75.1875 C64.58985503 75.1724266 62.80469776 75.15874289 61.01953125 75.14648438 C56.67913061 75.11625874 52.34046417 75.0575037 48 75 C48 64.77 48 54.54 48 44 C38.43 44 28.86 44 19 44 C19 54.23 19 64.46 19 75 C12.73 75 6.46 75 0 75 C0 50.25 0 25.5 0 0 Z " fill="#F2C878" transform="translate(10,11)"/>
<path d="M0 0 C16.87741935 0 16.87741935 0 22 4 C26.985533 9.24120135 27.20515615 13.77678066 27.25 20.75 C27.270625 21.53632812 27.29125 22.32265625 27.3125 23.1328125 C27.35489677 29.51352571 26.21159696 34.17830733 22.1875 39.3125 C15.34107004 44.59403168 8.61333857 43 0 43 C0 28.81 0 14.62 0 0 Z " fill="#181717" transform="translate(79,27)"/>
</svg>
